<svg xmlns="http://www.w3.org/2000/svg" viewBox="0 0 24 24" fill="currentColor">
  <g transform="matrix(0.00672 0 0 -0.00672 0.5830 11.2252)"><path d="M1126 599 1523 479Q1483 312 1397.0 200.0Q1311 88 1183.5 31.0Q1056 -26 859 -26Q620 -26 468.5 43.5Q317 113 207.0 288.0Q97 463 97 736Q97 1100 290.5 1295.5Q484 1491 838 1491Q1115 1491 1273.5 1379.0Q1432 1267 1509 1035L1109 946Q1088 1013 1065 1044Q1027 1096 972.0 1124.0Q917 1152 849 1152Q695 1152 613 1028Q551 936 551 739Q551 495 625.0 404.5Q699 314 833 314Q963 314 1029.5 387.0Q1096 460 1126 599ZM1745 1466H2198V912L2673 1466H3275L2741 913L3299 0H2741L2432 603L2198 358V0H1745Z"/></g>
  <g transform="matrix(0.00673 0 0 -0.00673 2.3719 22.6318)"><path d="M479 1042 94 1111Q142 1295 278.5 1393.0Q415 1491 665 1491Q952 1491 1080.0 1384.0Q1208 1277 1208 1115Q1208 1020 1156.0 943.0Q1104 866 999 808Q1084 787 1129 759Q1202 714 1242.5 640.5Q1283 567 1283 465Q1283 337 1216.0 219.5Q1149 102 1023.0 38.5Q897 -25 692 -25Q492 -25 376.5 22.0Q261 69 186.5 159.5Q112 250 72 387L479 441Q503 318 553.5 270.5Q604 223 682 223Q764 223 818.5 283.0Q873 343 873 443Q873 545 820.5 601.0Q768 657 678 657Q630 657 546 633L567 924Q601 919 620 919Q700 919 753.5 970.0Q807 1021 807 1091Q807 1158 767.0 1198.0Q727 1238 657 1238Q585 1238 540.0 1194.5Q495 1151 479 1042ZM1413 1466H2790V1104H2328V0H1875V1104H1413Z"/></g>
</svg>
